ffmpeg started on 2025-05-29 at 16:02:43
Report written to "D:\Convert\FFMetrics\reports\ssim_report-6.txt"
Log level: 32
Command line:
ffmpeg -hide_banner -nostdin -i "G:\\\xc0\xed\xe8\xec\xe5\\\xce\xed\xe3\xee\xe8\xed\xe3\xe8\\!_36_\xce\xf1\xe5\xed\xfc_2024\\JamClub\\\xd0\xe0\xed\xec\xe0 1_2\\[JamClub] Ranma 1_2 - 09 [1080p]_HEVC.mkv" -i "G:\\\xc0\xed\xe8\xec\xe5\\\xce\xed\xe3\xee\xe8\xed\xe3\xe8\\!_36_\xce\xf1\xe5\xed\xfc_2024\\JamClub\\\xd0\xe0\xed\xec\xe0 1_2\\[JamClub] Ranma 1_2 - 09 [1080p].mp4" -lavfi "[0:v]settb=AVTB,setpts=PTS-STARTPTS,format=pix_fmts=yuv420p10,fps=24000/1001,scale=1920:1080:flags=bicubic[main];[1:v]settb=AVTB,setpts=PTS-STARTPTS,format=pix_fmts=yuv420p,fps=24000/1001,scale=1920:1080:flags=bicubic[ref];[main][ref]ssim=eof_action=endall:stats_file='D\\:/Convert/FFMetrics/logs/ssim_logfile-6.txt'" -f null -
Input #0, matroska,webm, from 'G:\Аниме\Онгоинги\!_36_Осень_2024\JamClub\Ранма 1_2\[JamClub] Ranma 1_2 - 09 [1080p]_HEVC.mkv':
  Metadata:
    COMPATIBLE_BRANDS: isomiso2avc1mp41
    MAJOR_BRAND     : isom
    MINOR_VERSION   : 512
    ENCODER         : Lavf61.7.100
  Duration: 00:24:48.47, start: -0.001000, bitrate: 2079 kb/s
  Stream #0:0: Video: hevc (Main 10), yuv420p10le(tv, bt709, progressive), 1920x1080 [SAR 1:1 DAR 16:9], 23.98 fps, 23.98 tbr, 1k tbn (default)
      Metadata:
        HANDLER_NAME    : VideoHandler
        VENDOR_ID       : [0][0][0][0]
        ENCODER         : Lavc61.19.100 libx265
        BPS             : 1889877
        DURATION        : 00:24:48.361708333
        NUMBER_OF_FRAMES: 35685
        NUMBER_OF_BYTES : 351602534
        _STATISTICS_WRITING_APP: mkvpropedit v66.0.0 ('Josie') 64-bit
        _STATISTICS_WRITING_DATE_UTC: 2025-05-29 08:25:44
        _STATISTICS_TAGS: BPS DURATION NUMBER_OF_FRAMES NUMBER_OF_BYTES
  Stream #0:1(eng): Audio: aac (LC), 48000 Hz, stereo, fltp (default)
      Metadata:
        HANDLER_NAME    : SoundHandler
        VENDOR_ID       : [0][0][0][0]
        ENCODER         : Lavc61.19.100 aac
        BPS             : 185192
        DURATION        : 00:24:48.429000000
        NUMBER_OF_FRAMES: 69771
        NUMBER_OF_BYTES : 34455692
        _STATISTICS_WRITING_APP: mkvpropedit v66.0.0 ('Josie') 64-bit
        _STATISTICS_WRITING_DATE_UTC: 2025-05-29 08:25:44
        _STATISTICS_TAGS: BPS DURATION NUMBER_OF_FRAMES NUMBER_OF_BYTES
Input #1, mov,mp4,m4a,3gp,3g2,mj2, from 'G:\Аниме\Онгоинги\!_36_Осень_2024\JamClub\Ранма 1_2\[JamClub] Ranma 1_2 - 09 [1080p].mp4':
  Metadata:
    major_brand     : isom
    minor_version   : 512
    compatible_brands: isomiso2avc1mp41
    encoder         : Lavf60.16.100
  Duration: 00:24:48.45, start: 0.000000, bitrate: 4297 kb/s
  Stream #1:0[0x1](und): Video: h264 (High) (avc1 / 0x31637661), yuv420p(progressive), 1920x1080 [SAR 1:1 DAR 16:9], 4099 kb/s, 23.98 fps, 23.98 tbr, 90k tbn (default)
      Metadata:
        handler_name    : VideoHandler
        vendor_id       : [0][0][0][0]
  Stream #1:1[0x2](eng): Audio: aac (LC) (mp4a / 0x6134706D), 48000 Hz, stereo, fltp, 191 kb/s (default)
      Metadata:
        handler_name    : SoundHandler
        vendor_id       : [0][0][0][0]
Stream mapping:
  Stream #0:0 (hevc) -> settb:default
  Stream #1:0 (h264) -> settb:default
  ssim:default -> Stream #0:0 (wrapped_avframe)
  Stream #0:1 -> #0:1 (aac (native) -> pcm_s16le (native))
Output #0, null, to 'pipe:':
  Metadata:
    COMPATIBLE_BRANDS: isomiso2avc1mp41
    MAJOR_BRAND     : isom
    MINOR_VERSION   : 512
    encoder         : Lavf61.7.100
  Stream #0:0: Video: wrapped_avframe, yuv420p10le(tv, bt709, progressive), 1920x1080 [SAR 1:1 DAR 16:9], q=2-31, 200 kb/s, 23.98 fps, 23.98 tbn
      Metadata:
        encoder         : Lavc61.19.100 wrapped_avframe
  Stream #0:1(eng): Audio: pcm_s16le, 48000 Hz, stereo, s16, 1536 kb/s (default)
      Metadata:
        HANDLER_NAME    : SoundHandler
        VENDOR_ID       : [0][0][0][0]
        _STATISTICS_TAGS: BPS DURATION NUMBER_OF_FRAMES NUMBER_OF_BYTES
        BPS             : 185192
        DURATION        : 00:24:48.429000000
        NUMBER_OF_FRAMES: 69771
        NUMBER_OF_BYTES : 34455692
        _STATISTICS_WRITING_APP: mkvpropedit v66.0.0 ('Josie') 64-bit
        _STATISTICS_WRITING_DATE_UTC: 2025-05-29 08:25:44
        encoder         : Lavc61.19.100 pcm_s16le
frame=  112 fps=0.0 q=-0.0 size=N/A time=00:00:04.67 bitrate=N/A speed=9.08x    frame=  268 fps=262 q=-0.0 size=N/A time=00:00:11.17 bitrate=N/A speed=10.9x    frame=  452 fps=292 q=-0.0 size=N/A time=00:00:18.85 bitrate=N/A speed=12.2x    frame=  697 fps=340 q=-0.0 size=N/A time=00:00:29.07 bitrate=N/A speed=14.2x    frame=  928 fps=360 q=-0.0 size=N/A time=00:00:38.70 bitrate=N/A speed=  15x    frame= 1110 fps=360 q=-0.0 size=N/A time=00:00:46.29 bitrate=N/A speed=  15x    frame= 1298 fps=360 q=-0.0 size=N/A time=00:00:54.13 bitrate=N/A speed=  15x    frame= 1480 fps=358 q=-0.0 size=N/A time=00:01:01.72 bitrate=N/A speed=  15x    frame= 1690 fps=365 q=-0.0 size=N/A time=00:01:10.48 bitrate=N/A speed=15.2x    frame= 1841 fps=357 q=-0.0 size=N/A time=00:01:16.78 bitrate=N/A speed=14.9x    frame= 1993 fps=352 q=-0.0 size=N/A time=00:01:23.12 bitrate=N/A speed=14.7x    frame= 2181 fps=352 q=-0.0 size=N/A time=00:01:30.96 bitrate=N/A speed=14.7x    frame= 2351 fps=351 q=-0.0 size=N/A time=00:01:38.05 bitrate=N/A speed=14.6x    frame= 2509 fps=348 q=-0.0 size=N/A time=00:01:44.64 bitrate=N/A speed=14.5x    frame= 2663 fps=344 q=-0.0 size=N/A time=00:01:51.06 bitrate=N/A speed=14.4x    frame= 2833 fps=343 q=-0.0 size=N/A time=00:01:58.15 bitrate=N/A speed=14.3x    frame= 2989 fps=341 q=-0.0 size=N/A time=00:02:04.66 bitrate=N/A speed=14.2x    frame= 3160 fps=341 q=-0.0 size=N/A time=00:02:11.79 bitrate=N/A speed=14.2x    frame= 3279 fps=335 q=-0.0 size=N/A time=00:02:16.76 bitrate=N/A speed=  14x    frame= 3442 fps=334 q=-0.0 size=N/A time=00:02:23.56 bitrate=N/A speed=13.9x    frame= 3605 fps=333 q=-0.0 size=N/A time=00:02:30.35 bitrate=N/A speed=13.9x    frame= 3779 fps=333 q=-0.0 size=N/A time=00:02:37.61 bitrate=N/A speed=13.9x    frame= 3984 fps=336 q=-0.0 size=N/A time=00:02:46.16 bitrate=N/A speed=  14x    frame= 4219 fps=341 q=-0.0 size=N/A time=00:02:55.96 bitrate=N/A speed=14.2x    frame= 4455 fps=345 q=-0.0 size=N/A time=00:03:05.81 bitrate=N/A speed=14.4x    frame= 4663 fps=347 q=-0.0 size=N/A time=00:03:14.48 bitrate=N/A speed=14.5x    frame= 4907 fps=352 q=-0.0 size=N/A time=00:03:24.66 bitrate=N/A speed=14.7x    frame= 5137 fps=355 q=-0.0 size=N/A time=00:03:34.25 bitrate=N/A speed=14.8x    frame= 5362 fps=358 q=-0.0 size=N/A time=00:03:43.64 bitrate=N/A speed=14.9x    frame= 5606 fps=362 q=-0.0 size=N/A time=00:03:53.81 bitrate=N/A speed=15.1x    frame= 5812 fps=363 q=-0.0 size=N/A time=00:04:02.40 bitrate=N/A speed=15.2x    frame= 6029 fps=365 q=-0.0 size=N/A time=00:04:11.45 bitrate=N/A speed=15.2x    frame= 6255 fps=367 q=-0.0 size=N/A time=00:04:20.88 bitrate=N/A speed=15.3x    frame= 6473 fps=369 q=-0.0 size=N/A time=00:04:29.97 bitrate=N/A speed=15.4x    frame= 6669 fps=369 q=-0.0 size=N/A time=00:04:38.15 bitrate=N/A speed=15.4x    frame= 6866 fps=369 q=-0.0 size=N/A time=00:04:46.36 bitrate=N/A speed=15.4x    frame= 7038 fps=368 q=-0.0 size=N/A time=00:04:53.54 bitrate=N/A speed=15.4x    frame= 7229 fps=368 q=-0.0 size=N/A time=00:05:01.50 bitrate=N/A speed=15.4x    frame= 7456 fps=370 q=-0.0 size=N/A time=00:05:10.97 bitrate=N/A speed=15.4x    frame= 7723 fps=374 q=-0.0 size=N/A time=00:05:22.11 bitrate=N/A speed=15.6x    frame= 7910 fps=374 q=-0.0 size=N/A time=00:05:29.91 bitrate=N/A speed=15.6x    frame= 8075 fps=372 q=-0.0 size=N/A time=00:05:36.79 bitrate=N/A speed=15.5x    frame= 8283 fps=373 q=-0.0 size=N/A time=00:05:45.47 bitrate=N/A speed=15.6x    frame= 8545 fps=376 q=-0.0 size=N/A time=00:05:56.39 bitrate=N/A speed=15.7x    frame= 8813 fps=379 q=-0.0 size=N/A time=00:06:07.57 bitrate=N/A speed=15.8x    frame= 9039 fps=381 q=-0.0 size=N/A time=00:06:17.00 bitrate=N/A speed=15.9x    frame= 9249 fps=381 q=-0.0 size=N/A time=00:06:25.76 bitrate=N/A speed=15.9x    frame= 9492 fps=383 q=-0.0 size=N/A time=00:06:35.89 bitrate=N/A speed=  16x    frame= 9724 fps=384 q=-0.0 size=N/A time=00:06:45.57 bitrate=N/A speed=  16x    frame= 9937 fps=385 q=-0.0 size=N/A time=00:06:54.45 bitrate=N/A speed=16.1x    frame=10104 fps=384 q=-0.0 size=N/A time=00:07:01.42 bitrate=N/A speed=  16x    frame=10290 fps=383 q=-0.0 size=N/A time=00:07:09.17 bitrate=N/A speed=  16x    frame=10509 fps=384 q=-0.0 size=N/A time=00:07:18.31 bitrate=N/A speed=  16x    frame=10718 fps=385 q=-0.0 size=N/A time=00:07:27.02 bitrate=N/A speed=  16x    frame=10927 fps=385 q=-0.0 size=N/A time=00:07:35.74 bitrate=N/A speed=16.1x    frame=11150 fps=386 q=-0.0 size=N/A time=00:07:45.04 bitrate=N/A speed=16.1x    frame=11334 fps=385 q=-0.0 size=N/A time=00:07:52.72 bitrate=N/A speed=16.1x    frame=11488 fps=384 q=-0.0 size=N/A time=00:07:59.14 bitrate=N/A speed=  16x    frame=11682 fps=384 q=-0.0 size=N/A time=00:08:07.23 bitrate=N/A speed=  16x    frame=11888 fps=384 q=-0.0 size=N/A time=00:08:15.82 bitrate=N/A speed=  16x    frame=12030 fps=382 q=-0.0 size=N/A time=00:08:21.75 bitrate=N/A speed=15.9x    frame=12226 fps=382 q=-0.0 size=N/A time=00:08:29.92 bitrate=N/A speed=15.9x    frame=12474 fps=384 q=-0.0 size=N/A time=00:08:40.26 bitrate=N/A speed=  16x    frame=12609 fps=382 q=-0.0 size=N/A time=00:08:45.90 bitrate=N/A speed=15.9x    frame=12832 fps=383 q=-0.0 size=N/A time=00:08:55.20 bitrate=N/A speed=  16x    frame=13069 fps=384 q=-0.0 size=N/A time=00:09:05.08 bitrate=N/A speed=  16x    frame=13308 fps=385 q=-0.0 size=N/A time=00:09:15.05 bitrate=N/A speed=16.1x    frame=13539 fps=386 q=-0.0 size=N/A time=00:09:24.68 bitrate=N/A speed=16.1x    frame=13780 fps=387 q=-0.0 size=N/A time=00:09:34.74 bitrate=N/A speed=16.1x    frame=13979 fps=387 q=-0.0 size=N/A time=00:09:43.04 bitrate=N/A speed=16.1x    frame=14173 fps=387 q=-0.0 size=N/A time=00:09:51.13 bitrate=N/A speed=16.1x    frame=14377 fps=387 q=-0.0 size=N/A time=00:09:59.64 bitrate=N/A speed=16.1x    frame=14569 fps=387 q=-0.0 size=N/A time=00:10:07.64 bitrate=N/A speed=16.1x    frame=14774 fps=387 q=-0.0 size=N/A time=00:10:16.19 bitrate=N/A speed=16.1x    frame=14989 fps=387 q=-0.0 size=N/A time=00:10:25.16 bitrate=N/A speed=16.2x    frame=15175 fps=387 q=-0.0 size=N/A time=00:10:32.92 bitrate=N/A speed=16.1x    frame=15365 fps=387 q=-0.0 size=N/A time=00:10:40.84 bitrate=N/A speed=16.1x    frame=15534 fps=386 q=-0.0 size=N/A time=00:10:47.89 bitrate=N/A speed=16.1x    frame=15700 fps=385 q=-0.0 size=N/A time=00:10:54.82 bitrate=N/A speed=16.1x    frame=15901 fps=385 q=-0.0 size=N/A time=00:11:03.20 bitrate=N/A speed=16.1x    frame=16071 fps=385 q=-0.0 size=N/A time=00:11:10.29 bitrate=N/A speed=  16x    frame=16192 fps=383 q=-0.0 size=N/A time=00:11:15.34 bitrate=N/A speed=  16x    frame=16326 fps=381 q=-0.0 size=N/A time=00:11:20.93 bitrate=N/A speed=15.9x    frame=16474 fps=380 q=-0.0 size=N/A time=00:11:27.10 bitrate=N/A speed=15.9x    frame=16624 fps=379 q=-0.0 size=N/A time=00:11:33.35 bitrate=N/A speed=15.8x    frame=16817 fps=379 q=-0.0 size=N/A time=00:11:41.40 bitrate=N/A speed=15.8x    frame=17014 fps=379 q=-0.0 size=N/A time=00:11:49.62 bitrate=N/A speed=15.8x    frame=17255 fps=380 q=-0.0 size=N/A time=00:11:59.67 bitrate=N/A speed=15.9x    frame=17466 fps=380 q=-0.0 size=N/A time=00:12:08.47 bitrate=N/A speed=15.9x    frame=17716 fps=382 q=-0.0 size=N/A time=00:12:18.90 bitrate=N/A speed=15.9x    frame=17975 fps=383 q=-0.0 size=N/A time=00:12:29.70 bitrate=N/A speed=  16x    frame=18160 fps=383 q=-0.0 size=N/A time=00:12:37.42 bitrate=N/A speed=  16x    frame=18377 fps=383 q=-0.0 size=N/A time=00:12:46.47 bitrate=N/A speed=  16x    frame=18652 fps=385 q=-0.0 size=N/A time=00:12:57.94 bitrate=N/A speed=  16x    frame=18852 fps=385 q=-0.0 size=N/A time=00:13:06.28 bitrate=N/A speed=  16x    frame=19112 fps=386 q=-0.0 size=N/A time=00:13:17.12 bitrate=N/A speed=16.1x    frame=19367 fps=387 q=-0.0 size=N/A time=00:13:27.76 bitrate=N/A speed=16.1x    frame=19585 fps=387 q=-0.0 size=N/A time=00:13:36.85 bitrate=N/A speed=16.2x    frame=19833 fps=388 q=-0.0 size=N/A time=00:13:47.20 bitrate=N/A speed=16.2x    frame=20026 fps=388 q=-0.0 size=N/A time=00:13:55.25 bitrate=N/A speed=16.2x    frame=20225 fps=388 q=-0.0 size=N/A time=00:14:03.55 bitrate=N/A speed=16.2x    frame=20464 fps=389 q=-0.0 size=N/A time=00:14:13.51 bitrate=N/A speed=16.2x    frame=20712 fps=390 q=-0.0 size=N/A time=00:14:23.86 bitrate=N/A speed=16.3x    frame=20969 fps=391 q=-0.0 size=N/A time=00:14:34.58 bitrate=N/A speed=16.3x    frame=21215 fps=392 q=-0.0 size=N/A time=00:14:44.84 bitrate=N/A speed=16.3x    frame=21467 fps=393 q=-0.0 size=N/A time=00:14:55.35 bitrate=N/A speed=16.4x    frame=21703 fps=393 q=-0.0 size=N/A time=00:15:05.19 bitrate=N/A speed=16.4x    frame=21886 fps=393 q=-0.0 size=N/A time=00:15:12.82 bitrate=N/A speed=16.4x    frame=22097 fps=393 q=-0.0 size=N/A time=00:15:21.62 bitrate=N/A speed=16.4x    frame=22338 fps=394 q=-0.0 size=N/A time=00:15:31.68 bitrate=N/A speed=16.4x    frame=22575 fps=394 q=-0.0 size=N/A time=00:15:41.56 bitrate=N/A speed=16.4x    frame=22753 fps=394 q=-0.0 size=N/A time=00:15:48.98 bitrate=N/A speed=16.4x    frame=22958 fps=394 q=-0.0 size=N/A time=00:15:57.53 bitrate=N/A speed=16.4x    frame=23168 fps=394 q=-0.0 size=N/A time=00:16:06.29 bitrate=N/A speed=16.4x    frame=23401 fps=394 q=-0.0 size=N/A time=00:16:16.01 bitrate=N/A speed=16.4x    frame=23623 fps=395 q=-0.0 size=N/A time=00:16:25.27 bitrate=N/A speed=16.5x    frame=23867 fps=395 q=-0.0 size=N/A time=00:16:35.45 bitrate=N/A speed=16.5x    frame=24125 fps=396 q=-0.0 size=N/A time=00:16:46.21 bitrate=N/A speed=16.5x    frame=24348 fps=397 q=-0.0 size=N/A time=00:16:55.51 bitrate=N/A speed=16.5x    frame=24564 fps=397 q=-0.0 size=N/A time=00:17:04.52 bitrate=N/A speed=16.5x    frame=24794 fps=397 q=-0.0 size=N/A time=00:17:14.11 bitrate=N/A speed=16.6x    frame=25009 fps=397 q=-0.0 size=N/A time=00:17:23.08 bitrate=N/A speed=16.6x    frame=25255 fps=398 q=-0.0 size=N/A time=00:17:33.34 bitrate=N/A speed=16.6x    frame=25474 fps=398 q=-0.0 size=N/A time=00:17:42.47 bitrate=N/A speed=16.6x    frame=25739 fps=399 q=-0.0 size=N/A time=00:17:53.53 bitrate=N/A speed=16.6x    frame=25984 fps=400 q=-0.0 size=N/A time=00:18:03.74 bitrate=N/A speed=16.7x    frame=26229 fps=400 q=-0.0 size=N/A time=00:18:13.96 bitrate=N/A speed=16.7x    frame=26477 fps=401 q=-0.0 size=N/A time=00:18:24.31 bitrate=N/A speed=16.7x    frame=26737 fps=402 q=-0.0 size=N/A time=00:18:35.15 bitrate=N/A speed=16.8x    frame=26962 fps=402 q=-0.0 size=N/A time=00:18:44.54 bitrate=N/A speed=16.8x    frame=27163 fps=402 q=-0.0 size=N/A time=00:18:52.92 bitrate=N/A speed=16.8x    frame=27374 fps=402 q=-0.0 size=N/A time=00:19:01.72 bitrate=N/A speed=16.8x    frame=27579 fps=402 q=-0.0 size=N/A time=00:19:10.27 bitrate=N/A speed=16.8x    frame=27773 fps=402 q=-0.0 size=N/A time=00:19:18.36 bitrate=N/A speed=16.8x    frame=27927 fps=401 q=-0.0 size=N/A time=00:19:24.78 bitrate=N/A speed=16.7x    frame=28177 fps=402 q=-0.0 size=N/A time=00:19:35.21 bitrate=N/A speed=16.7x    frame=28393 fps=402 q=-0.0 size=N/A time=00:19:44.22 bitrate=N/A speed=16.8x    frame=28592 fps=402 q=-0.0 size=N/A time=00:19:52.52 bitrate=N/A speed=16.7x    frame=28832 fps=402 q=-0.0 size=N/A time=00:20:02.53 bitrate=N/A speed=16.8x    frame=29009 fps=402 q=-0.0 size=N/A time=00:20:09.91 bitrate=N/A speed=16.8x    frame=29236 fps=402 q=-0.0 size=N/A time=00:20:19.38 bitrate=N/A speed=16.8x    frame=29467 fps=402 q=-0.0 size=N/A time=00:20:29.01 bitrate=N/A speed=16.8x    frame=29695 fps=402 q=-0.0 size=N/A time=00:20:38.52 bitrate=N/A speed=16.8x    frame=29881 fps=402 q=-0.0 size=N/A time=00:20:46.28 bitrate=N/A speed=16.8x    frame=30056 fps=402 q=-0.0 size=N/A time=00:20:53.58 bitrate=N/A speed=16.8x    frame=30290 fps=402 q=-0.0 size=N/A time=00:21:03.34 bitrate=N/A speed=16.8x    frame=30508 fps=402 q=-0.0 size=N/A time=00:21:12.43 bitrate=N/A speed=16.8x    frame=30738 fps=403 q=-0.0 size=N/A time=00:21:22.03 bitrate=N/A speed=16.8x    frame=30963 fps=403 q=-0.0 size=N/A time=00:21:31.41 bitrate=N/A speed=16.8x    frame=31205 fps=403 q=-0.0 size=N/A time=00:21:41.50 bitrate=N/A speed=16.8x    frame=31430 fps=403 q=-0.0 size=N/A time=00:21:50.89 bitrate=N/A speed=16.8x    frame=31589 fps=403 q=-0.0 size=N/A time=00:21:57.52 bitrate=N/A speed=16.8x    frame=31777 fps=403 q=-0.0 size=N/A time=00:22:05.36 bitrate=N/A speed=16.8x    frame=31937 fps=402 q=-0.0 size=N/A time=00:22:12.03 bitrate=N/A speed=16.8x    frame=32094 fps=401 q=-0.0 size=N/A time=00:22:18.58 bitrate=N/A speed=16.7x    frame=32243 fps=401 q=-0.0 size=N/A time=00:22:24.80 bitrate=N/A speed=16.7x    frame=32420 fps=400 q=-0.0 size=N/A time=00:22:32.18 bitrate=N/A speed=16.7x    frame=32623 fps=400 q=-0.0 size=N/A time=00:22:40.65 bitrate=N/A speed=16.7x    frame=32793 fps=400 q=-0.0 size=N/A time=00:22:47.74 bitrate=N/A speed=16.7x    frame=32970 fps=399 q=-0.0 size=N/A time=00:22:55.12 bitrate=N/A speed=16.7x    frame=33160 fps=399 q=-0.0 size=N/A time=00:23:03.04 bitrate=N/A speed=16.7x    frame=33364 fps=399 q=-0.0 size=N/A time=00:23:11.55 bitrate=N/A speed=16.7x    frame=33562 fps=399 q=-0.0 size=N/A time=00:23:19.81 bitrate=N/A speed=16.6x    frame=33815 fps=400 q=-0.0 size=N/A time=00:23:30.36 bitrate=N/A speed=16.7x    frame=34099 fps=401 q=-0.0 size=N/A time=00:23:42.21 bitrate=N/A speed=16.7x    frame=34398 fps=402 q=-0.0 size=N/A time=00:23:54.68 bitrate=N/A speed=16.8x    frame=34685 fps=403 q=-0.0 size=N/A time=00:24:06.65 bitrate=N/A speed=16.8x    frame=34971 fps=403 q=-0.0 size=N/A time=00:24:18.58 bitrate=N/A speed=16.8x    frame=35265 fps=404 q=-0.0 size=N/A time=00:24:30.84 bitrate=N/A speed=16.9x    frame=35546 fps=405 q=-0.0 size=N/A time=00:24:42.56 bitrate=N/A speed=16.9x    [Parsed_ssim_10 @ 000002336126f280] SSIM Y:0.995526 (23.493156) U:0.994954 (22.970345) V:0.995291 (23.270709) All:0.995392 (23.364445)
[out#0/null @ 000002335ab54540] video:15333KiB audio:279084KiB subtitle:0KiB other streams:0KiB global headers:0KiB muxing overhead: unknown
frame=35685 fps=406 q=-0.0 Lsize=N/A time=00:24:48.36 bitrate=N/A speed=16.9x    
